<svg xmlns="http://www.w3.org/2000/svg" viewBox="0 0 155.9 141.7">
  <defs>
    <linearGradient id="hrt" x1="63.4" x2="125.5" y1="78.05" y2="78.05" gradientTransform="matrix(1 0 0 -1 0 144)" gradientUnits="userSpaceOnUse">
      <stop stop-color="#F2A090" offset="0"/>
      <stop stop-color="#e8826a" offset=".55"/>
      <stop stop-color="#F0A088" offset="1"/>
    </linearGradient>
  </defs>
  <path fill="rgba(200,168,110,0.8)" d="m75 19.3c-10.4 0.3-20.5 2-30.1 6-12 4.8-22.8 12.6-29.5 23.2-4.1 6.7-6.4 13.5-6.9 20.9-0.3 7.6 1.6 14.6 4.5 20.1 3.3 6.2 8.6 12.4 14.7 17.1 6.9 5.3 15.1 9.3 23.9 11.8 2.2 0.6 4.4 1.3 6.7 1.8 4.8 0.9 10.3 1.7 15.7 2h0.9c2 0.1 4.3 0.1 5.4 0.1 11.9-0.2 23.7-2 34.7-6.9 6.1-2.6 11.5-6 16.3-10.2 8.4-7.4 14-16.7 15.7-28.2 0.4-2.9 0.5-5.8 0.2-9.4-1.2-11.9-7.7-22.9-18.3-31.3-11.2-8.9-24.9-14.5-39.2-16.3-3-0.4-6.1-0.6-9.2-0.7h-5m2.2 10.5h3.8c14.5 0.3 31.2 4 42.8 14.3 2.6 2.3 5 5 7 7.9 1.5 2.5 3.2 5.6 4.1 8.5 0.9 3 1.6 6.2 1.6 9.4 0 5.2-1 9.7-3.2 14.4-4.9 9.4-13.5 16.3-22.6 20.9-7.9 3.7-15.8 5.9-25.2 7-2 0.2-5.5 0.4-8.2 0.3-4 0-7.3-0.3-11.5-1-9.7-1.4-19.6-4.8-27.3-10.3-7.5-5.5-13.7-13.2-15.9-22.7-0.6-3-0.9-6.6-0.6-10.5 0.8-6 3-11.1 6.7-16.3 4.7-6.1 10.7-10.7 17-14.1 8.3-4.5 18.8-7.5 29.3-7.8l2.2-0.1"/>
  <path fill="url(#hrt)" d="m94.4 56c-5-11.9-20.4-14-27.3-3.8-6.5 8.8-4.1 17.1 6.2 26.4l21.2 19.1 10-8.4c12.7-11.6 21-16.5 20.9-27.4-0.3-14.9-17-21.9-27.8-12-1.5 1.4-2.5 2.8-3.2 4.3v1.8z"/>
  <path fill="#422F18" d="m46.9 57.8c-1.9 0.3-3.2 2.3-2 4.2 2.2 3.5 3.6 6.8 3.6 10.4-0.1 3.4-1 6.8-3.5 10.3-2 2.8 1.9 5.8 4.2 3.2 2.3-2.9 4.2-7 4.6-11.3 0.6-6-1.6-11.1-4.6-15.7-0.5-0.8-1.5-1.2-2.3-1.1z"/>
  <path fill="#422F18" d="m57 51.8c-1.9 0.4-3 2.7-1.5 4.5 4.2 6.2 6.1 13.7 4.7 21-0.6 3.8-2.7 8.2-4.6 10.9-1.8 2.9 2.2 5.8 4.4 2.8 3.4-5.3 5.6-10.5 6.1-16.9 0.5-6.7-1.9-14.6-6.1-20.8-0.9-1.2-1.5-1.7-3-1.5z"/>
  <path fill="#422F18" d="m67.7 44.8c-1.7 0.4-2.7 2.6-1.4 4.2 4.7 6.9 7.4 14 7.7 22.5 0.1 7.4-2 14.8-6.6 22.2-1.9 3.2 2.3 6 4.3 3.2 4.2-6.3 7-13.2 7.5-21.9 0.5-8.5-2.3-18.7-8.7-29.1-1-1.1-1.9-1.3-2.8-1.1z"/>
  <path fill="#422F18" d="m77.9 39.2c-1.3 0.5-2.4 2.3-1.3 3.7 5 7.1 8.9 16.8 9.1 27.1 0.4 10-2.2 19.5-7.9 29.5-1.3 2.7 2.2 6 4.4 3.4 5.8-9 8.9-18.9 9.3-29.4 0-10.2-3.1-22.3-10.9-33.5-0.7-0.8-1.8-1.3-2.7-0.8z"/>
</svg>
